<svg xmlns="http://www.w3.org/2000/svg" width="2500" height="2500" viewBox="0 0 192.756 192.756">
    <g fill-rule="evenodd" clip-rule="evenodd">
        <path d="M90.918 117.979H63.622V90.066c7.456.105 13.829 2.847 19.119 8.176 5.438 5.355 8.178 11.877 8.178 19.48v.257h-.001z"
              fill="#fff"/>
        <path d="M63.622 90.066h-.36c-7.605 0-14.169 2.74-19.584 8.176-5.377 5.355-8.074 11.877-8.074 19.48 0 7.605 2.697 14.17 8.074 19.588 5.415 5.375 11.979 8.07 19.584 8.07 7.604 0 14.126-2.695 19.479-8.07 5.333-5.354 8.072-11.791 8.178-19.332H63.622V90.066zM101.348 117.873v.338c0 7.627 2.742 14.17 8.18 19.586 5.354 5.375 11.875 8.074 19.48 8.074 7.604 0 14.168-2.699 19.586-8.074 5.373-5.416 8.07-11.959 8.07-19.586 0-7.604-2.697-14.125-8.07-19.457-5.354-5.353-11.791-8.073-19.332-8.178v27.297h-27.914z"
              fill="#1aa7ec"/>
        <path d="M129.262 90.576v27.297h-27.914c.107-7.479 2.848-13.852 8.18-19.119 5.354-5.459 11.875-8.178 19.48-8.178h.254z"
              fill="#fff"/>
        <path d="M129.154 80.973h.34c7.627 0 14.17-2.718 19.584-8.178 5.377-5.352 8.074-11.853 8.074-19.479 0-7.605-2.697-14.147-8.074-19.565-5.414-5.395-11.957-8.072-19.584-8.072-7.604 0-14.125 2.677-19.457 8.072-5.354 5.333-8.072 11.79-8.18 19.332h27.297v27.89z"
              fill="#1aa7ec"/>
        <path d="M101.857 53.082h27.297v27.891c-7.477-.105-13.848-2.825-19.117-8.178-5.459-5.352-8.18-11.853-8.18-19.479v-.234z"
              fill="#fff"/>
        <path d="M91.408 52.679v-.339c0-7.627-2.719-14.169-8.179-19.586-5.354-5.375-11.853-8.072-19.48-8.072-7.604 0-14.146 2.697-19.563 8.072-5.396 5.417-8.072 11.959-8.072 19.586 0 7.604 2.677 14.125 8.072 19.458 5.332 5.353 11.789 8.072 19.331 8.178V52.679h27.891z"
              fill="#1aa7ec"/>
        <path d="M63.516 79.975V52.679h27.892c-.107 7.477-2.826 13.85-8.179 19.119-5.354 5.459-11.853 8.178-19.48 8.178h-.233v-.001z"
              fill="#fff"/>
    </g>
</svg>